<?xml version="1.0" encoding="UTF-8"?>
<svg version="1.1" xmlns="http://www.w3.org/2000/svg" width="277" height="272">
<path d="M0 0 C1.14082031 0.58523437 2.28164062 1.17046875 3.45703125 1.7734375 C12.27703187 6.46347648 19.63922626 12.27973558 27 19 C27.99773437 19.89138672 27.99773437 19.89138672 29.015625 20.80078125 C49.32942046 39.92802324 62.43306402 69.26249444 63.30078125 97.04296875 C63.32004074 99.09105901 63.32360501 101.1393493 63.3125 103.1875 C63.30512817 104.81824463 63.30512817 104.81824463 63.29760742 106.48193359 C62.87791585 135.60207202 51.42650572 161.90341543 32.41015625 183.70703125 C31 185 31 185 29 185 C28.67 185.99 28.34 186.98 28 188 C27.34 188 26.68 188 26 188 C25.70802734 188.82951172 25.70802734 188.82951172 25.41015625 189.67578125 C23.39869151 192.99107633 20.5339355 194.95712037 17.4375 197.1875 C16.77564697 197.66654785 16.11379395 198.1455957 15.43188477 198.63916016 C-5.17560663 213.18704196 -27.90187143 220.66763103 -53.125 220.5 C-53.84033905 220.49823761 -54.5556781 220.49647522 -55.29269409 220.49465942 C-87.98532627 220.31605586 -115.60390337 206.93188959 -138.74609375 184.31640625 C-160.60734782 161.36379472 -170.67897722 131.42773116 -170.1875 100.00390625 C-168.94481059 68.19882412 -155.42722886 39.32265135 -132.5546875 17.26953125 C-96.02378305 -15.1837646 -43.50209615 -22.58042383 0 0 Z M-104.7890625 61.9765625 C-116.25385001 77.65455814 -120.87453221 95.66941065 -118.375 114.875 C-117.30364133 120.92222447 -114.87357041 126.13282907 -112.14453125 131.578125 C-109.48007343 139.54421731 -113.30246331 148.12374547 -115.5625 155.875 C-116.21187193 158.12175063 -116.85912098 160.36911628 -117.50390625 162.6171875 C-117.79080322 163.60315918 -118.0777002 164.58913086 -118.37329102 165.60498047 C-119.08438282 167.90986614 -119.08438282 167.90986614 -119 170 C-117.37413832 169.59353458 -115.74829985 169.18697611 -114.12255859 168.7800293 C-112.69357741 168.42319491 -111.26420648 168.06791806 -109.83447266 167.71411133 C-106.07447502 166.78130632 -102.32434394 165.82473778 -98.5859375 164.80859375 C-97.52632812 164.52677246 -97.52632812 164.52677246 -96.4453125 164.23925781 C-94.46932383 163.71263819 -92.49629428 163.1749525 -90.5234375 162.63671875 C-85.14285945 161.664397 -81.21359358 162.73242394 -76.3125 164.9375 C-60.11613447 171.57535472 -43.04108919 169.92693404 -26.9375 163.875 C-10.74762305 156.76515986 0.81005534 143.91375203 7.8125 127.9375 C13.8296594 112.4393559 14.39617614 93.98216253 7.8125 78.5625 C4.131957 70.88562776 -0.37695599 63.41647967 -6 57 C-6.66 57 -7.32 57 -8 57 C-8 56.34 -8 55.68 -8 55 C-9.92716639 53.46249578 -11.83672788 52.06404681 -13.875 50.6875 C-14.46998291 50.28450684 -15.06496582 49.88151367 -15.67797852 49.46630859 C-44.95530504 29.94284901 -81.62005194 35.55576099 -104.7890625 61.9765625 Z " fill="#000000" transform="translate(186,34)"/>
<path d="M0 0 C11.89029874 9.94534262 18.8086748 23.27037657 20.44140625 38.625 C21.34158247 54.31140419 16.76852072 68.79620187 6.7421875 81.0234375 C0.56856349 87.34541107 -7.07232347 93.00924755 -15.37109375 96.1875 C-16.13035156 96.48398438 -16.88960938 96.78046875 -17.671875 97.0859375 C-30.84392414 101.44330732 -45.60683056 100.29662275 -58.37109375 95.1875 C-59.58345703 94.37732422 -59.58345703 94.37732422 -60.8203125 93.55078125 C-66.58890843 90.4677185 -72.84825009 92.57335387 -78.80859375 94.1875 C-79.54013672 94.37828125 -80.27167969 94.5690625 -81.02539062 94.765625 C-82.80929041 95.23200403 -84.5904922 95.70868278 -86.37109375 96.1875 C-88.11850822 92.69267106 -85.91913825 88.56880133 -84.84179688 84.94921875 C-83.44169025 80.04152794 -82.29760249 75.70362773 -84.359375 70.87109375 C-84.79636719 70.12988281 -85.23335938 69.38867188 -85.68359375 68.625 C-92.58923901 55.50035035 -93.12195022 40.47085988 -89.40234375 26.28125 C-86.1708335 16.58671925 -80.52516272 9.35420867 -73.37109375 2.1875 C-72.80648437 1.61128906 -72.241875 1.03507812 -71.66015625 0.44140625 C-51.68509114 -18.31566708 -20.64852612 -15.78404632 0 0 Z M-66.37109375 16.1875 C-69.41331331 21.46068057 -70.25663669 26.23021115 -69.37109375 32.1875 C-64.65658887 47.90251626 -52.06349159 61.73540257 -38.37109375 70.1875 C-29.68865901 74.72630204 -22.25572385 77.24759076 -12.37109375 76.1875 C-8.87382854 74.55297907 -8.87382854 74.55297907 -6.37109375 72.1875 C-5.47390625 71.56875 -5.47390625 71.56875 -4.55859375 70.9375 C-3.15873702 68.87455324 -3.06615049 67.53866071 -2.796875 65.078125 C-2.65636719 63.79421875 -2.51585937 62.5103125 -2.37109375 61.1875 C-4.61288752 59.81784792 -6.86281713 58.46697192 -9.12109375 57.125 C-9.7553125 56.73505859 -10.38953125 56.34511719 -11.04296875 55.94335938 C-14.50465326 53.78296667 -14.50465326 53.78296667 -18.43847656 53.39282227 C-20.75505134 54.15793044 -20.75505134 54.15793044 -22.74609375 57.25 C-25.37109375 60.1875 -25.37109375 60.1875 -28.18359375 60.875 C-37.06816911 58.95871904 -45.41430098 51.42505375 -50.43359375 44.0625 C-51.86257112 41.55696198 -52.36552816 40.42682055 -52.43359375 37.5 C-51.37109375 35.1875 -51.37109375 35.1875 -49.24609375 32.75 C-47.10659448 30.35522124 -47.10659448 30.35522124 -47.37109375 27.5 C-49.82864366 18.43722225 -49.82864366 18.43722225 -55.37109375 11.1875 C-60.25382572 10.13177417 -63.26878892 12.66620572 -66.37109375 16.1875 Z " fill="#000000" transform="translate(168.37109375,93.8125)"/>
</svg>
